<svg width="32" height="40" viewBox="0 0 32 40" fill="none" xmlns="http://www.w3.org/2000/svg">
    <path
        d="M0 26.8272V1.2836L15.3497 14.1196L2.63943 23.8236C1.53753 24.6451 0.640639 25.672 0 26.8272ZM23.2424 20.6916L17.7841 25.3126C15.9647 26.9043 14.9909 29.035 14.9909 31.4739C14.9909 33.6817 15.8622 35.7611 17.3998 37.3271C18.9629 38.8931 21.0386 39.7659 23.2424 39.7659C25.4462 39.7659 27.5218 38.8931 29.085 37.3271C30.6482 35.7611 31.4938 33.6817 31.4938 31.4739C31.4938 29.2661 30.6482 27.1867 29.085 25.6463L23.2424 20.6916ZM30.3663 4.05618L23.9599 9.06222L3.35695 24.7992C1.25565 26.3395 0 28.8297 0 31.4482C0 33.656 0.871269 35.7354 2.4088 37.3014C3.97196 38.8674 6.04763 39.7403 8.25143 39.7403H18.6042C17.861 39.3295 17.1691 38.7904 16.5285 38.1743C14.7347 36.3772 13.7609 33.9897 13.7609 31.4739C13.7609 28.727 14.8884 26.2111 16.9641 24.3884L28.7519 14.4533C30.4944 12.9644 31.5194 10.6282 31.5194 8.29206C31.5194 6.77741 31.135 5.33978 30.3663 4.05618ZM14.7347 0L23.9855 7.5219L29.6488 3.08064C29.5206 2.92661 29.3156 2.69556 29.0594 2.3875C27.4193 0.410752 24.9849 0 23.268 0H14.7347Z"
        fill="white" />
</svg>
