<svg width="170" height="40" viewBox="0 0 170 40" fill="none" xmlns="http://www.w3.org/2000/svg">
    <g clip-path="url(#clip0_519_1312)">
        <path
            d="M156.982 19.9472C158.469 18.4582 160.16 17.7138 162.056 17.7138C163.619 17.7138 164.824 17.9705 165.644 18.4839C166.464 18.9974 166.746 19.4338 166.746 20.358V30.1133H169.974V20.1783C169.974 18.7406 169.513 17.6624 168.591 16.8666C167.156 15.66 165.208 15.0439 162.774 15.0439C160.57 15.0439 158.622 15.891 156.957 17.5854V15.3776H153.753V30.139H156.982V19.9472ZM149.448 30.1133V15.3519H146.219V17.457C144.426 15.9167 142.171 15.0439 139.813 15.0182C137.507 15.0182 135.534 15.6857 133.919 17.0463C133.022 17.8421 132.535 18.9203 132.535 20.358V25.1073C132.535 26.5449 132.997 27.6232 133.919 28.419C135.482 29.7539 137.456 30.4214 139.813 30.4214C142.171 30.4727 144.477 29.5999 146.219 28.0082V30.0877L149.448 30.1133ZM146.219 25.2613C145.528 26.0828 144.631 26.699 143.631 27.0584C142.658 27.5205 141.581 27.7772 140.505 27.8029C139.275 27.8029 138.045 27.4691 136.969 26.853C136.072 26.3396 135.764 25.8775 135.764 24.9533V20.5634C135.764 19.5878 136.046 19.1514 136.969 18.6636C138.045 18.0475 139.249 17.7394 140.505 17.7394C141.581 17.7651 142.658 17.9962 143.631 18.4326C144.784 18.8947 145.63 19.4851 146.219 20.2296V25.2613ZM126.001 30.1133L130.639 15.3519H127.282L123.643 27.4948H122.875L119.031 15.3519H115.597L111.42 27.4948H110.702L107.141 15.3519H103.655L108.319 30.1133H113.521L117.237 19.1L120.825 30.1133H126.001ZM92.3802 30.3957C95.5065 30.3957 97.7872 30.0877 99.171 29.4715C100.811 28.7014 101.631 27.5205 101.631 25.9801V24.4142C101.682 23.4386 101.272 22.4888 100.555 21.847C99.8885 21.2308 98.7097 20.666 96.9672 20.2296L91.8164 18.8433C90.3814 18.4839 89.4589 18.1245 89.1001 17.8165C88.7414 17.5084 88.4851 16.9693 88.4851 16.2761C88.4851 15.5316 88.7414 15.0182 89.2539 14.6845C89.9202 14.248 91.4064 14.017 93.6359 14.017C95.9678 13.9913 98.2741 14.2224 100.555 14.7101V12.0146C98.3766 11.6038 96.1984 11.3984 93.9946 11.4241C90.7402 11.4241 88.4082 11.8605 87.0501 12.7847C85.8457 13.5806 85.2563 14.6074 85.2563 15.8654V17.226C85.2307 18.1502 85.5894 19.023 86.2557 19.6648C87.0501 20.4093 88.4082 21.0511 90.3558 21.5389L95.2759 22.8738C97.6591 23.4643 98.3766 24.0291 98.3766 25.3127C98.3766 26.2369 98.0947 26.853 97.5309 27.1611C96.6853 27.5975 95.0196 27.8285 92.5596 27.8285C90.1252 27.8542 87.7164 27.5975 85.3332 27.1354V29.8823C87.6139 30.2417 89.9714 30.4214 92.3802 30.3957ZM82.8475 27.3921C81.6687 27.7258 80.4643 27.8799 79.2343 27.8542C78.0299 27.8542 77.0818 27.6232 76.4155 27.1097C75.8005 26.6476 75.6211 26.0828 75.6211 24.9019V17.8678H82.8475V15.3263H75.6467V11.5782H72.4179V25.133C72.4179 27.1354 72.7767 28.2136 73.9042 29.1635C74.9805 30.0106 76.6205 30.4214 78.8755 30.4214C80.6181 30.4214 81.925 30.2417 82.8731 29.8566L82.8475 27.3921ZM68.1641 15.3263H64.9352V30.0877H68.1641V15.3263ZM68.1641 9.37036H64.9352V12.7334H68.1641V9.37036ZM54.5825 30.1133C57.6063 30.1133 59.1951 29.7796 60.3995 28.7527C61.5527 27.7772 61.9627 27.084 61.9627 25.5694V24.2858C61.9627 22.7455 61.2195 21.6416 59.7332 20.9741C59.5026 20.8457 59.3232 20.7687 59.2464 20.7431L59.3489 20.6917C60.7326 20.1269 61.3989 19.0744 61.3989 17.5084V16.1734C61.3989 14.7615 61.0402 13.9913 60.092 13.1441C58.9645 12.1943 57.0682 11.7322 54.3519 11.7322H45.0498V30.1133H54.5825ZM55.1463 22.0523C56.4276 22.0523 57.3501 22.2577 57.9138 22.6941C58.4776 23.1306 58.7595 23.8494 58.7595 24.8506C58.7595 25.8518 58.4263 26.5193 57.8113 26.9557C57.2476 27.3664 56.1969 27.5718 54.6594 27.5718H48.2274V22.0523H55.1463ZM54.1213 14.2994C55.8638 14.2994 56.9657 14.5304 57.5295 15.0439C57.9651 15.4803 58.1957 16.1221 58.1957 17.0206C58.1957 17.9705 57.9651 18.6123 57.4782 18.9974C56.9401 19.3824 56.1969 19.5878 55.1975 19.5878H48.2274V14.2994H54.1213Z"
            fill="white" />
        <path
            d="M0 26.8272V1.2836L15.3497 14.1196L2.63943 23.8236C1.53753 24.6451 0.640639 25.672 0 26.8272ZM23.2424 20.6916L17.7841 25.3126C15.9647 26.9043 14.9909 29.035 14.9909 31.4739C14.9909 33.6817 15.8622 35.7611 17.3998 37.3271C18.9629 38.8931 21.0386 39.7659 23.2424 39.7659C25.4462 39.7659 27.5218 38.8931 29.085 37.3271C30.6482 35.7611 31.4938 33.6817 31.4938 31.4739C31.4938 29.2661 30.6482 27.1867 29.085 25.6463L23.2424 20.6916ZM30.3663 4.05618L23.9599 9.06222L3.35695 24.7992C1.25565 26.3395 0 28.8297 0 31.4482C0 33.656 0.871269 35.7354 2.4088 37.3014C3.97196 38.8674 6.04763 39.7403 8.25143 39.7403H18.6042C17.861 39.3295 17.1691 38.7904 16.5285 38.1743C14.7347 36.3772 13.7609 33.9897 13.7609 31.4739C13.7609 28.727 14.8884 26.2111 16.9641 24.3884L28.7519 14.4533C30.4944 12.9644 31.5194 10.6282 31.5194 8.29206C31.5194 6.77741 31.135 5.33978 30.3663 4.05618ZM14.7347 0L23.9855 7.5219L29.6488 3.08064C29.5206 2.92661 29.3156 2.69556 29.0594 2.3875C27.4193 0.410752 24.9849 0 23.268 0H14.7347Z"
            fill="white" />
    </g>
    <defs>
        <clipPath id="clip0_519_1312">
            <rect width="170" height="39.7402" fill="white" />
        </clipPath>
    </defs>
</svg>
